<svg xmlns="http://www.w3.org/2000/svg" width="396" height="200" viewBox="0 0 396 200" role="img" aria-labelledby="title desc">
  <title id="title">Clean Air System Banner</title>
  <desc id="desc">Minimal vector showing an air filter with flowing air and fresh leaves, suitable for a website banner.</desc>

  <!-- defs -->
  <defs>
    <linearGradient id="air" x1="0" y1="0" x2="1" y2="0">
      <stop offset="0" stop-color="#8FD3FE"/>
      <stop offset="1" stop-color="#0061A6"/>
    </linearGradient>
    <linearGradient id="leaf" x1="0" y1="0" x2="0" y2="1">
      <stop offset="0" stop-color="#3FD07A"/>
      <stop offset="1" stop-color="#149E4F"/>
    </linearGradient>
    <filter id="soft" x="-20%" y="-20%" width="140%" height="140%">
      <feGaussianBlur in="SourceGraphic" stdDeviation="1.188" result="blur"/>
      <feColorMatrix in="blur" type="matrix" values="
        1 0 0 0 0
        0 1 0 0 0
        0 0 1 0 0
        0 0 0 0.4 0" />
    </filter>
    <pattern id="mesh" patternUnits="userSpaceOnUse" width="11.88" height="12.00">
      <rect width="100%" height="100%" fill="none" stroke="#BFD7EA" stroke-width="0.396" />
    </pattern>
  </defs>

  <!-- abstract wind waves -->
  <path d="M 7.92 70.00 C 79.20 20.00, 158.40 120.00, 237.60 60.00 S 376.20 110.00, 388.08 70.00"
        fill="none" stroke="url(#air)" stroke-width="3.96" stroke-linecap="round" opacity="0.7"/>
  <path d="M 7.92 110.00 C 87.12 60.00, 150.48 160.00, 245.52 100.00 S 356.40 156.00, 388.08 116.00"
        fill="none" stroke="url(#air)" stroke-width="3.96" stroke-linecap="round" opacity="0.55"/>

  <!-- filter frame -->
  <g transform="translate(39.60,36.00)">
    <rect rx="4.00" ry="4.00" width="110.88" height="128.00"
          fill="white" stroke="#0061A6" stroke-width="3.17" filter="url(#soft)"/>
    <rect x="3.96" y="4.00" rx="2.00" ry="2.00"
          width="102.96" height="120.00" fill="url(#mesh)"/>
    <!-- indicator lights -->
    <circle cx="87.12" cy="48.00" r="2.38" fill="#3FD07A"/>
    <circle cx="95.04" cy="48.00" r="2.38" fill="#F9D66E"/>
    <circle cx="102.96" cy="48.00" r="2.38" fill="#FF7B7B"/>
  </g>

  <!-- leaves for freshness -->
  <g opacity="0.95">
    <path d="M 245.52 44.00 C 261.36 16.00, 324.72 32.00, 340.56 56.00 C 297.00 52.00, 265.32 56.00, 245.52 44.00"
          fill="url(#leaf)"/>
    <path d="M 293.04 130.00 C 312.84 104.00, 364.32 108.00, 372.24 132.00 C 332.64 132.00, 312.84 140.00, 293.04 130.00"
          fill="url(#leaf)"/>
  </g>

  <!-- sparkles/clean effect -->
  <g>
    <circle cx="277.20" cy="80.00" r="1.98" fill="#BFE8FF"/>
    <circle cx="316.80" cy="60.00" r="1.58" fill="#BFE8FF"/>
    <circle cx="336.60" cy="110.00" r="2.38" fill="#BFE8FF"/>
  </g>

  <!-- accessibility title area left empty for overlaying text in banner -->
</svg>