<svg xmlns="http://www.w3.org/2000/svg" xmlns:xlink="http://www.w3.org/1999/xlink" width="136" zoomAndPan="magnify" viewBox="0 0 102 30.000001" height="40" preserveAspectRatio="xMidYMid meet" version="1.0"><path fill="#0056a4" d="M 67.679688 1.558594 C 67.539062 1.636719 67.328125 1.839844 67.210938 2.003906 C 67.019531 2.246094 66.980469 2.371094 66.980469 2.738281 C 66.980469 3.546875 67.546875 4.09375 68.371094 4.101562 C 69.066406 4.101562 69.691406 3.46875 69.691406 2.777344 C 69.683594 2.347656 69.449219 1.863281 69.136719 1.636719 C 68.773438 1.378906 68.027344 1.339844 67.679688 1.558594 Z M 68.632812 1.574219 C 69.207031 1.730469 69.535156 2.175781 69.535156 2.785156 C 69.535156 3.265625 69.300781 3.625 68.84375 3.84375 C 67.816406 4.34375 66.730469 3.265625 67.226562 2.230469 C 67.382812 1.894531 67.570312 1.730469 67.941406 1.597656 C 68.308594 1.472656 68.253906 1.472656 68.632812 1.574219 Z M 68.632812 1.574219 " fill-opacity="1" fill-rule="nonzero"/><path fill="#0056a4" d="M 67.808594 2.738281 C 67.808594 3.382812 67.832031 3.523438 67.925781 3.523438 C 68.011719 3.523438 68.042969 3.429688 68.042969 3.171875 C 68.042969 2.855469 68.058594 2.816406 68.222656 2.816406 C 68.355469 2.816406 68.445312 2.902344 68.578125 3.171875 C 68.671875 3.367188 68.796875 3.523438 68.867188 3.523438 C 68.960938 3.523438 68.953125 3.460938 68.8125 3.171875 L 68.640625 2.816406 L 68.8125 2.691406 C 68.921875 2.621094 68.984375 2.488281 68.984375 2.355469 C 68.984375 2.082031 68.734375 1.957031 68.199219 1.957031 L 67.808594 1.957031 Z M 68.734375 2.339844 C 68.765625 2.566406 68.640625 2.660156 68.300781 2.660156 C 68.058594 2.660156 68.042969 2.644531 68.042969 2.378906 L 68.042969 2.105469 L 68.378906 2.128906 C 68.664062 2.152344 68.71875 2.183594 68.734375 2.339844 Z M 68.734375 2.339844 " fill-opacity="1" fill-rule="nonzero"/><path fill="#0056a4" d="M 24.164062 3.578125 C 24.128906 3.601562 24.105469 6.191406 24.105469 9.328125 L 24.105469 15.023438 L 65.054688 15.023438 L 65.054688 23 L 64.003906 23.023438 L 62.949219 23.046875 L 64.222656 25.328125 C 64.914062 26.589844 65.503906 27.621094 65.535156 27.621094 C 65.558594 27.621094 66.148438 26.589844 66.839844 25.328125 L 68.105469 23.046875 L 67.089844 23.023438 L 66.078125 23 L 66.078125 15.023438 L 70.03125 15.039062 L 73.976562 15.0625 L 74.015625 16.097656 L 74.054688 17.121094 L 76.351562 15.863281 C 77.617188 15.164062 78.621094 14.570312 78.589844 14.539062 C 78.519531 14.46875 74.109375 12.050781 74.054688 12.050781 C 74.03125 12.050781 74.015625 12.503906 74.015625 13.070312 L 74.015625 14.085938 L 66.078125 14.085938 L 66.078125 9.164062 C 66.078125 6.464844 66.054688 4.085938 66.03125 3.882812 L 65.976562 3.523438 L 45.09375 3.523438 C 33.609375 3.523438 24.1875 3.546875 24.164062 3.578125 Z M 65.054688 9.3125 L 65.054688 14.085938 L 25.128906 14.085938 L 25.128906 4.539062 L 65.054688 4.539062 Z M 65.054688 9.3125 " fill-opacity="1" fill-rule="nonzero"/><path fill="#0056a4" d="M 36.4375 5.824219 C 36.421875 5.847656 35.976562 5.917969 35.441406 5.996094 C 34.757812 6.089844 34.480469 6.160156 34.480469 6.238281 C 34.480469 6.292969 34.550781 6.339844 34.648438 6.339844 C 34.734375 6.339844 34.875 6.378906 34.960938 6.425781 C 35.171875 6.535156 35.140625 6.699219 34.5625 8.765625 C 33.625 12.042969 33.585938 12.285156 33.835938 12.605469 C 34.121094 12.949219 34.90625 12.792969 35.355469 12.308594 C 35.816406 11.808594 36.007812 11.503906 35.90625 11.402344 C 35.824219 11.332031 35.785156 11.339844 35.722656 11.457031 C 35.675781 11.542969 35.527344 11.730469 35.386719 11.878906 C 35.101562 12.183594 34.875 12.183594 34.875 11.871094 C 34.875 11.769531 35.207031 10.488281 35.613281 9.03125 C 36.519531 5.800781 36.519531 5.792969 36.492188 5.792969 C 36.476562 5.792969 36.453125 5.808594 36.4375 5.824219 Z M 36.4375 5.824219 " fill-opacity="1" fill-rule="nonzero"/><path fill="#0056a4" d="M 30.628906 6.027344 C 30.433594 6.066406 30.019531 6.230469 29.695312 6.386719 C 28.304688 7.066406 27.382812 8.617188 27.375 10.289062 C 27.367188 10.886719 27.402344 11.058594 27.574219 11.425781 C 27.933594 12.199219 28.570312 12.660156 29.53125 12.832031 C 30.511719 13.015625 31.503906 12.683594 32.265625 11.949219 C 32.691406 11.535156 32.753906 11.394531 32.554688 11.316406 C 32.484375 11.292969 32.304688 11.410156 32.085938 11.628906 C 31.582031 12.128906 31.039062 12.363281 30.394531 12.355469 C 29.546875 12.355469 29.074219 11.964844 28.894531 11.128906 C 28.601562 9.734375 29.546875 7.332031 30.671875 6.589844 C 31.628906 5.957031 32.683594 6.316406 32.902344 7.355469 C 32.949219 7.574219 32.988281 7.855469 32.988281 7.984375 C 32.988281 8.265625 33.199219 8.304688 33.265625 8.039062 C 33.429688 7.332031 33.695312 6.097656 33.695312 6.035156 C 33.695312 5.902344 33.554688 5.933594 33.3125 6.113281 C 33.089844 6.277344 33.074219 6.277344 32.628906 6.144531 C 32.070312 5.980469 31.117188 5.925781 30.628906 6.027344 Z M 30.628906 6.027344 " fill-opacity="1" fill-rule="nonzero"/><path fill="#0056a4" d="M 57.980469 6.050781 C 57.589844 6.246094 57.503906 6.792969 57.816406 7.074219 C 57.894531 7.144531 58.0625 7.222656 58.203125 7.246094 C 58.40625 7.285156 58.484375 7.253906 58.691406 7.058594 C 58.996094 6.753906 58.996094 6.480469 58.699219 6.175781 C 58.445312 5.925781 58.28125 5.902344 57.980469 6.050781 Z M 57.980469 6.050781 " fill-opacity="1" fill-rule="nonzero"/><path fill="#0056a4" d="M 38.859375 8.226562 C 37.773438 8.484375 36.738281 9.679688 36.535156 10.925781 C 36.390625 11.832031 36.691406 12.449219 37.429688 12.730469 C 38.183594 13.023438 39.039062 12.667969 39.628906 11.816406 C 39.820312 11.550781 39.835938 11.480469 39.738281 11.417969 C 39.574219 11.316406 39.566406 11.324219 39.355469 11.636719 C 39.101562 12.003906 38.757812 12.207031 38.394531 12.207031 C 37.917969 12.207031 37.664062 11.785156 37.757812 11.144531 C 37.789062 10.925781 37.832031 10.902344 38.214844 10.824219 C 39.128906 10.628906 39.929688 10.101562 40.21875 9.507812 C 40.511719 8.90625 40.289062 8.398438 39.660156 8.21875 C 39.355469 8.132812 39.269531 8.132812 38.859375 8.226562 Z M 39.386719 8.578125 C 39.535156 8.71875 39.527344 8.703125 39.425781 9.15625 C 39.386719 9.351562 39.261719 9.640625 39.152344 9.796875 C 38.960938 10.09375 38.253906 10.566406 38.003906 10.566406 C 37.878906 10.566406 37.878906 10.535156 37.996094 10.148438 C 38.175781 9.539062 38.53125 8.890625 38.804688 8.65625 C 39.085938 8.421875 39.214844 8.40625 39.386719 8.578125 Z M 39.386719 8.578125 " fill-opacity="1" fill-rule="nonzero"/><path fill="#0056a4" d="M 42.953125 8.21875 C 42.027344 8.5 40.949219 9.882812 40.699219 11.105469 C 40.527344 11.941406 40.855469 12.691406 41.453125 12.800781 C 42.042969 12.910156 42.554688 12.636719 43.066406 11.933594 L 43.292969 11.621094 L 43.238281 12.027344 C 43.191406 12.394531 43.207031 12.449219 43.386719 12.628906 C 43.621094 12.863281 43.960938 12.894531 44.296875 12.714844 C 44.519531 12.605469 45.328125 11.761719 45.328125 11.652344 C 45.328125 11.472656 45.148438 11.550781 44.832031 11.863281 C 44.148438 12.542969 44.148438 12.175781 44.855469 9.828125 C 45.117188 8.96875 45.3125 8.25 45.296875 8.242188 C 45.28125 8.226562 45.039062 8.234375 44.753906 8.265625 C 44.265625 8.3125 44.234375 8.328125 44.1875 8.539062 C 44.132812 8.789062 43.992188 8.84375 43.992188 8.625 C 43.992188 8.304688 43.410156 8.070312 42.953125 8.21875 Z M 43.695312 8.664062 C 44.09375 9.023438 43.542969 11.042969 42.828125 11.832031 C 42.515625 12.175781 42.097656 12.246094 41.949219 11.980469 C 41.617188 11.355469 42.445312 9.117188 43.160156 8.679688 C 43.457031 8.5 43.511719 8.5 43.695312 8.664062 Z M 43.695312 8.664062 " fill-opacity="1" fill-rule="nonzero"/><path fill="#0056a4" d="M 49.4375 8.203125 C 49.0625 8.320312 48.550781 8.78125 48.125 9.382812 C 47.875 9.734375 47.65625 10.007812 47.640625 9.992188 C 47.625 9.976562 47.734375 9.585938 47.890625 9.125 C 48.046875 8.664062 48.15625 8.273438 48.140625 8.25 C 48.117188 8.234375 47.734375 8.273438 47.285156 8.335938 C 46.835938 8.398438 46.421875 8.453125 46.375 8.453125 C 46.320312 8.453125 46.273438 8.507812 46.273438 8.570312 C 46.273438 8.640625 46.34375 8.6875 46.46875 8.6875 C 46.84375 8.6875 46.835938 8.859375 46.304688 10.761719 C 46.027344 11.746094 45.808594 12.582031 45.800781 12.613281 C 45.800781 12.652344 46.058594 12.675781 46.375 12.675781 L 46.941406 12.675781 L 47.199219 11.832031 C 47.347656 11.371094 47.609375 10.699219 47.789062 10.328125 C 48.300781 9.28125 49.140625 8.53125 49.3125 8.96875 C 49.335938 9.039062 49.179688 9.648438 48.960938 10.320312 C 48.355469 12.183594 48.347656 12.589844 48.90625 12.746094 C 49.4375 12.894531 49.972656 12.605469 50.445312 11.917969 C 50.632812 11.652344 50.664062 11.542969 50.59375 11.480469 C 50.53125 11.410156 50.484375 11.417969 50.429688 11.519531 C 50.144531 12.019531 49.652344 12.324219 49.652344 11.996094 C 49.652344 11.925781 49.832031 11.324219 50.050781 10.652344 C 50.554688 9.132812 50.609375 8.71875 50.351562 8.429688 C 50.152344 8.203125 49.753906 8.101562 49.4375 8.203125 Z M 49.4375 8.203125 " fill-opacity="1" fill-rule="nonzero"/><path fill="#0056a4" d="M 53.414062 8.25 C 52.621094 8.53125 51.6875 9.59375 51.339844 10.605469 C 50.941406 11.808594 51.246094 12.714844 52.101562 12.808594 C 52.652344 12.871094 53.171875 12.542969 53.675781 11.816406 C 53.800781 11.621094 53.808594 11.628906 53.761719 12.027344 C 53.722656 12.386719 53.738281 12.449219 53.917969 12.628906 C 54.328125 13.039062 54.972656 12.792969 55.578125 12.003906 C 55.976562 11.488281 55.820312 11.378906 55.363281 11.855469 C 54.671875 12.566406 54.671875 12.097656 55.378906 9.78125 C 55.632812 8.945312 55.835938 8.25 55.820312 8.234375 C 55.8125 8.21875 55.570312 8.234375 55.285156 8.265625 C 54.800781 8.3125 54.769531 8.328125 54.71875 8.539062 C 54.65625 8.820312 54.554688 8.828125 54.492188 8.5625 C 54.460938 8.4375 54.34375 8.328125 54.171875 8.25 C 53.847656 8.117188 53.785156 8.117188 53.414062 8.25 Z M 54.226562 8.664062 C 54.421875 8.84375 54.40625 9.3125 54.171875 10.125 C 53.808594 11.378906 53.304688 12.128906 52.835938 12.128906 C 52.691406 12.128906 52.527344 12.074219 52.472656 11.996094 C 52.046875 11.496094 53.046875 8.898438 53.769531 8.609375 C 54.011719 8.507812 54.058594 8.515625 54.226562 8.664062 Z M 54.226562 8.664062 " fill-opacity="1" fill-rule="nonzero"/><path fill="#0056a4" d="M 61.945312 8.359375 C 61.753906 8.5 61.480469 8.84375 61.226562 9.273438 C 61 9.65625 60.8125 9.921875 60.8125 9.875 C 60.8125 9.828125 60.921875 9.445312 61.054688 9.03125 C 61.1875 8.617188 61.285156 8.265625 61.269531 8.25 C 61.253906 8.234375 60.851562 8.273438 60.371094 8.335938 C 59.898438 8.398438 59.492188 8.453125 59.460938 8.453125 C 59.421875 8.453125 59.398438 8.507812 59.398438 8.570312 C 59.398438 8.640625 59.46875 8.6875 59.59375 8.6875 C 60.058594 8.6875 59.988281 9.085938 58.957031 12.535156 C 58.917969 12.660156 58.980469 12.675781 59.507812 12.675781 L 60.089844 12.675781 L 60.449219 11.558594 C 60.796875 10.480469 61.132812 9.773438 61.496094 9.359375 C 61.707031 9.117188 61.839844 9.101562 62.03125 9.3125 C 62.171875 9.46875 62.5 9.515625 62.667969 9.40625 C 62.980469 9.203125 63.019531 8.609375 62.738281 8.335938 C 62.492188 8.085938 62.320312 8.09375 61.945312 8.359375 Z M 61.945312 8.359375 " fill-opacity="1" fill-rule="nonzero"/><path fill="#0056a4" d="M 57.667969 8.304688 C 57.433594 8.34375 57.085938 8.390625 56.90625 8.414062 C 56.542969 8.46875 56.417969 8.6875 56.75 8.6875 C 56.96875 8.6875 57.117188 8.820312 57.117188 9.015625 C 57.117188 9.101562 56.953125 9.765625 56.757812 10.511719 C 56.332031 12.066406 56.300781 12.371094 56.542969 12.605469 C 56.796875 12.855469 57.347656 12.832031 57.746094 12.558594 C 58.132812 12.292969 58.738281 11.457031 58.578125 11.402344 C 58.515625 11.378906 58.367188 11.496094 58.210938 11.707031 C 57.941406 12.058594 57.707031 12.199219 57.574219 12.066406 C 57.496094 11.988281 57.691406 11.121094 58.210938 9.289062 L 58.507812 8.21875 L 58.304688 8.226562 C 58.195312 8.234375 57.902344 8.265625 57.667969 8.304688 Z M 57.667969 8.304688 " fill-opacity="1" fill-rule="nonzero"/></svg>