<svg xmlns="http://www.w3.org/2000/svg" xmlns:xlink="http://www.w3.org/1999/xlink" width="567" zoomAndPan="magnify" viewBox="0 0 425.25 125.249995" height="167" preserveAspectRatio="xMidYMid meet" version="1.0"><path fill="#0056a4" d="M 283.121094 6.679688 C 282.519531 7.015625 281.609375 7.886719 281.105469 8.59375 C 280.300781 9.632812 280.132812 10.171875 280.132812 11.746094 C 280.132812 15.203125 282.550781 17.554688 286.078125 17.585938 C 289.035156 17.585938 291.722656 14.867188 291.722656 11.914062 C 291.6875 10.070312 290.679688 7.988281 289.335938 7.015625 C 287.792969 5.910156 284.601562 5.742188 283.121094 6.679688 Z M 287.1875 6.746094 C 289.640625 7.417969 291.050781 9.332031 291.050781 11.949219 C 291.050781 13.996094 290.042969 15.539062 288.09375 16.480469 C 283.695312 18.628906 279.058594 13.996094 281.175781 9.566406 C 281.847656 8.125 282.652344 7.417969 284.230469 6.847656 C 285.808594 6.3125 285.574219 6.3125 287.1875 6.746094 Z M 287.1875 6.746094 " fill-opacity="1" fill-rule="nonzero"/><path fill="#0056a4" d="M 283.660156 11.746094 C 283.660156 14.5 283.761719 15.101562 284.164062 15.101562 C 284.535156 15.101562 284.667969 14.699219 284.667969 13.59375 C 284.667969 12.25 284.734375 12.082031 285.441406 12.082031 C 286.011719 12.082031 286.378906 12.453125 286.953125 13.59375 C 287.355469 14.433594 287.890625 15.101562 288.195312 15.101562 C 288.597656 15.101562 288.5625 14.835938 287.960938 13.59375 L 287.21875 12.082031 L 287.960938 11.546875 C 288.429688 11.246094 288.699219 10.675781 288.699219 10.101562 C 288.699219 8.929688 287.625 8.390625 285.339844 8.390625 L 283.660156 8.390625 Z M 287.625 10.035156 C 287.757812 11.007812 287.21875 11.414062 285.777344 11.414062 C 284.734375 11.414062 284.667969 11.34375 284.667969 10.203125 L 284.667969 9.03125 L 286.113281 9.128906 C 287.320312 9.230469 287.554688 9.363281 287.625 10.035156 Z M 287.625 10.035156 " fill-opacity="1" fill-rule="nonzero"/><path fill="#0056a4" d="M 97.140625 15.339844 C 97.007812 15.4375 96.90625 26.546875 96.90625 40.003906 L 96.90625 64.433594 L 271.902344 64.433594 L 271.902344 98.628906 L 262.902344 98.832031 L 268.34375 108.628906 C 271.300781 114.03125 273.820312 118.460938 273.953125 118.460938 C 274.054688 118.460938 276.574219 114.03125 279.527344 108.628906 L 284.9375 98.832031 L 280.601562 98.730469 L 276.269531 98.628906 L 276.269531 64.433594 L 293.164062 64.5 L 310.027344 64.601562 L 310.195312 69.03125 L 310.363281 73.425781 L 320.171875 68.023438 C 325.578125 65.039062 329.878906 62.488281 329.746094 62.351562 C 329.441406 62.050781 310.597656 51.679688 310.363281 51.679688 C 310.261719 51.679688 310.195312 53.628906 310.195312 56.042969 L 310.195312 60.40625 L 276.269531 60.40625 L 276.269531 39.296875 C 276.269531 27.722656 276.167969 17.519531 276.070312 16.648438 L 275.832031 15.101562 L 186.589844 15.101562 C 137.515625 15.101562 97.242188 15.203125 97.140625 15.339844 Z M 271.902344 39.9375 L 271.902344 60.40625 L 101.273438 60.40625 L 101.273438 19.464844 L 271.902344 19.464844 Z M 271.902344 39.9375 " fill-opacity="1" fill-rule="nonzero"/><path fill="#0056a4" d="M 149.605469 24.96875 C 149.539062 25.070312 147.625 25.371094 145.339844 25.707031 C 142.417969 26.109375 141.242188 26.414062 141.242188 26.746094 C 141.242188 26.984375 141.546875 27.183594 141.949219 27.183594 C 142.316406 27.183594 142.921875 27.351562 143.292969 27.554688 C 144.199219 28.023438 144.0625 28.726562 141.578125 37.585938 C 137.582031 51.648438 137.414062 52.6875 138.488281 54.0625 C 139.699219 55.539062 143.054688 54.871094 144.972656 52.789062 C 146.953125 50.640625 147.757812 49.332031 147.324219 48.894531 C 146.988281 48.59375 146.820312 48.628906 146.550781 49.132812 C 146.347656 49.5 145.710938 50.304688 145.105469 50.941406 C 143.894531 52.253906 142.921875 52.253906 142.921875 50.910156 C 142.921875 50.472656 144.332031 44.96875 146.078125 38.726562 C 149.941406 24.867188 149.941406 24.835938 149.839844 24.835938 C 149.773438 24.835938 149.671875 24.902344 149.605469 24.96875 Z M 149.605469 24.96875 " fill-opacity="1" fill-rule="nonzero"/><path fill="#0056a4" d="M 124.785156 25.84375 C 123.945312 26.011719 122.164062 26.714844 120.789062 27.386719 C 114.84375 30.304688 110.910156 36.949219 110.878906 44.132812 C 110.84375 46.679688 110.980469 47.417969 111.71875 48.996094 C 113.261719 52.320312 115.984375 54.300781 120.082031 55.039062 C 124.28125 55.808594 128.511719 54.398438 131.769531 51.246094 C 133.585938 49.464844 133.851562 48.863281 133.011719 48.527344 C 132.710938 48.425781 131.9375 48.929688 131 49.871094 C 128.847656 52.015625 126.53125 53.023438 123.777344 52.992188 C 120.148438 52.992188 118.132812 51.3125 117.359375 47.722656 C 116.117188 41.75 120.148438 31.445312 124.953125 28.257812 C 129.050781 25.539062 133.550781 27.082031 134.492188 31.546875 C 134.691406 32.488281 134.859375 33.695312 134.859375 34.230469 C 134.859375 35.441406 135.769531 35.605469 136.035156 34.464844 C 136.742188 31.445312 137.882812 26.144531 137.882812 25.875 C 137.882812 25.304688 137.28125 25.4375 136.238281 26.210938 C 135.296875 26.914062 135.230469 26.914062 133.316406 26.34375 C 130.929688 25.640625 126.867188 25.40625 124.785156 25.84375 Z M 124.785156 25.84375 " fill-opacity="1" fill-rule="nonzero"/><path fill="#0056a4" d="M 241.675781 25.941406 C 239.996094 26.78125 239.625 29.128906 240.96875 30.339844 C 241.304688 30.640625 242.007812 30.976562 242.613281 31.078125 C 243.488281 31.246094 243.824219 31.109375 244.695312 30.273438 C 246.007812 28.960938 246.007812 27.789062 244.730469 26.480469 C 243.65625 25.40625 242.949219 25.304688 241.675781 25.941406 Z M 241.675781 25.941406 " fill-opacity="1" fill-rule="nonzero"/><path fill="#0056a4" d="M 159.953125 35.273438 C 155.316406 36.378906 150.882812 41.511719 150.007812 46.847656 C 149.40625 50.742188 150.679688 53.394531 153.839844 54.601562 C 157.0625 55.84375 160.722656 54.332031 163.242188 50.675781 C 164.050781 49.535156 164.117188 49.230469 163.714844 48.964844 C 163.007812 48.527344 162.976562 48.5625 162.066406 49.902344 C 160.992188 51.480469 159.515625 52.351562 157.96875 52.351562 C 155.921875 52.351562 154.847656 50.539062 155.25 47.789062 C 155.382812 46.847656 155.550781 46.75 157.199219 46.414062 C 161.09375 45.574219 164.519531 43.324219 165.761719 40.773438 C 167.003906 38.191406 166.066406 36.011719 163.378906 35.238281 C 162.066406 34.867188 161.699219 34.867188 159.953125 35.273438 Z M 162.203125 36.78125 C 162.839844 37.386719 162.808594 37.320312 162.371094 39.265625 C 162.203125 40.105469 161.664062 41.34375 161.195312 42.015625 C 160.386719 43.292969 157.367188 45.304688 156.289062 45.304688 C 155.753906 45.304688 155.753906 45.171875 156.257812 43.527344 C 157.03125 40.910156 158.542969 38.125 159.714844 37.117188 C 160.925781 36.109375 161.464844 36.042969 162.203125 36.78125 Z M 162.203125 36.78125 " fill-opacity="1" fill-rule="nonzero"/><path fill="#0056a4" d="M 177.453125 35.238281 C 173.488281 36.445312 168.886719 42.386719 167.8125 47.621094 C 167.074219 51.210938 168.484375 54.433594 171.035156 54.902344 C 173.554688 55.371094 175.738281 54.199219 177.921875 51.179688 L 178.894531 49.835938 L 178.660156 51.582031 C 178.460938 53.15625 178.527344 53.394531 179.300781 54.164062 C 180.308594 55.171875 181.75 55.304688 183.195312 54.535156 C 184.136719 54.0625 187.59375 50.441406 187.59375 49.96875 C 187.59375 49.199219 186.824219 49.535156 185.480469 50.875 C 182.558594 53.796875 182.558594 52.21875 185.582031 42.152344 C 186.6875 38.460938 187.527344 35.371094 187.460938 35.339844 C 187.394531 35.273438 186.351562 35.304688 185.144531 35.441406 C 183.0625 35.640625 182.925781 35.707031 182.726562 36.613281 C 182.488281 37.6875 181.886719 37.921875 181.886719 36.984375 C 181.886719 35.605469 179.398438 34.601562 177.453125 35.238281 Z M 180.609375 37.152344 C 182.320312 38.695312 179.972656 47.351562 176.914062 50.742188 C 175.570312 52.21875 173.789062 52.519531 173.152344 51.378906 C 171.742188 48.695312 175.269531 39.097656 178.324219 37.21875 C 179.601562 36.445312 179.835938 36.445312 180.609375 37.152344 Z M 180.609375 37.152344 " fill-opacity="1" fill-rule="nonzero"/><path fill="#0056a4" d="M 205.164062 35.171875 C 203.550781 35.675781 201.367188 37.65625 199.554688 40.238281 C 198.476562 41.75 197.539062 42.921875 197.472656 42.855469 C 197.402344 42.789062 197.875 41.109375 198.546875 39.132812 C 199.21875 37.152344 199.6875 35.472656 199.621094 35.371094 C 199.519531 35.304688 197.875 35.472656 195.960938 35.742188 C 194.042969 36.011719 192.265625 36.246094 192.0625 36.246094 C 191.828125 36.246094 191.625 36.480469 191.625 36.75 C 191.625 37.050781 191.929688 37.25 192.464844 37.25 C 194.078125 37.25 194.042969 37.988281 191.761719 46.144531 C 190.585938 50.371094 189.644531 53.964844 189.609375 54.097656 C 189.609375 54.265625 190.71875 54.367188 192.0625 54.367188 L 194.480469 54.367188 L 195.589844 50.742188 C 196.226562 48.761719 197.335938 45.875 198.109375 44.296875 C 200.292969 39.800781 203.886719 36.582031 204.625 38.460938 C 204.726562 38.761719 204.054688 41.378906 203.113281 44.265625 C 200.527344 52.253906 200.492188 53.996094 202.878906 54.667969 C 205.164062 55.304688 207.445312 54.0625 209.460938 51.109375 C 210.269531 49.96875 210.402344 49.5 210.101562 49.230469 C 209.832031 48.929688 209.628906 48.964844 209.394531 49.398438 C 208.1875 51.546875 206.070312 52.855469 206.070312 51.445312 C 206.070312 51.144531 206.84375 48.5625 207.78125 45.675781 C 209.933594 39.164062 210.167969 37.386719 209.058594 36.144531 C 208.21875 35.171875 206.507812 34.734375 205.164062 35.171875 Z M 205.164062 35.171875 " fill-opacity="1" fill-rule="nonzero"/><path fill="#0056a4" d="M 222.160156 35.371094 C 218.765625 36.582031 214.769531 41.144531 213.292969 45.472656 C 211.578125 50.640625 212.886719 54.535156 216.550781 54.9375 C 218.902344 55.203125 221.117188 53.796875 223.265625 50.675781 C 223.804688 49.835938 223.839844 49.871094 223.636719 51.582031 C 223.46875 53.125 223.535156 53.394531 224.308594 54.164062 C 226.054688 55.910156 228.808594 54.871094 231.394531 51.480469 C 233.109375 49.265625 232.4375 48.796875 230.488281 50.84375 C 227.53125 53.894531 227.53125 51.882812 230.554688 41.949219 C 231.628906 38.359375 232.503906 35.371094 232.4375 35.304688 C 232.402344 35.238281 231.363281 35.304688 230.152344 35.441406 C 228.070312 35.640625 227.9375 35.707031 227.734375 36.613281 C 227.464844 37.820312 227.027344 37.855469 226.761719 36.714844 C 226.625 36.179688 226.121094 35.707031 225.382812 35.371094 C 224.007812 34.800781 223.738281 34.800781 222.160156 35.371094 Z M 225.617188 37.152344 C 226.457031 37.921875 226.390625 39.9375 225.382812 43.425781 C 223.839844 48.796875 221.6875 52.015625 219.671875 52.015625 C 219.070312 52.015625 218.363281 51.78125 218.128906 51.445312 C 216.3125 49.300781 220.578125 38.15625 223.671875 36.917969 C 224.710938 36.480469 224.914062 36.511719 225.617188 37.152344 Z M 225.617188 37.152344 " fill-opacity="1" fill-rule="nonzero"/><path fill="#0056a4" d="M 258.601562 35.84375 C 257.796875 36.445312 256.621094 37.921875 255.546875 39.769531 C 254.570312 41.414062 253.765625 42.554688 253.765625 42.351562 C 253.765625 42.152344 254.234375 40.507812 254.808594 38.726562 C 255.378906 36.949219 255.78125 35.441406 255.714844 35.371094 C 255.648438 35.304688 253.933594 35.472656 251.886719 35.742188 C 249.871094 36.011719 248.121094 36.246094 247.988281 36.246094 C 247.820312 36.246094 247.71875 36.480469 247.71875 36.75 C 247.71875 37.050781 248.023438 37.25 248.558594 37.25 C 250.542969 37.25 250.238281 38.964844 245.839844 53.761719 C 245.671875 54.300781 245.941406 54.367188 248.191406 54.367188 L 250.675781 54.367188 L 252.222656 49.566406 C 253.699219 44.9375 255.144531 41.917969 256.6875 40.136719 C 257.59375 39.097656 258.167969 39.03125 258.972656 39.9375 C 259.578125 40.609375 260.988281 40.808594 261.691406 40.339844 C 263.035156 39.464844 263.203125 36.917969 261.996094 35.742188 C 260.953125 34.667969 260.214844 34.703125 258.601562 35.84375 Z M 258.601562 35.84375 " fill-opacity="1" fill-rule="nonzero"/><path fill="#0056a4" d="M 240.332031 35.605469 C 239.324219 35.773438 237.84375 35.976562 237.070312 36.078125 C 235.527344 36.3125 234.988281 37.25 236.398438 37.25 C 237.339844 37.25 237.980469 37.820312 237.980469 38.660156 C 237.980469 39.03125 237.273438 41.882812 236.433594 45.070312 C 234.621094 51.75 234.484375 53.058594 235.527344 54.0625 C 236.601562 55.136719 238.953125 55.039062 240.667969 53.863281 C 242.3125 52.722656 244.898438 49.132812 244.226562 48.894531 C 243.957031 48.796875 243.320312 49.300781 242.648438 50.203125 C 241.507812 51.714844 240.5 52.320312 239.925781 51.75 C 239.589844 51.414062 240.429688 47.6875 242.648438 39.835938 L 243.925781 35.238281 L 243.050781 35.273438 C 242.582031 35.304688 241.339844 35.441406 240.332031 35.605469 Z M 240.332031 35.605469 " fill-opacity="1" fill-rule="nonzero"/></svg>