<svg xmlns="http://www.w3.org/2000/svg" xmlns:xlink="http://www.w3.org/1999/xlink" width="136" zoomAndPan="magnify" viewBox="0 0 102 56.249996" height="75" preserveAspectRatio="xMidYMid meet" version="1.0"><path fill="#0056a4" d="M 77.292969 5.453125 C 77.050781 5.585938 76.6875 5.933594 76.488281 6.214844 C 76.164062 6.628906 76.097656 6.84375 76.097656 7.46875 C 76.097656 8.847656 77.066406 9.78125 78.476562 9.796875 C 79.664062 9.796875 80.738281 8.714844 80.738281 7.539062 C 80.726562 6.800781 80.320312 5.972656 79.785156 5.585938 C 79.164062 5.144531 77.886719 5.078125 77.292969 5.453125 Z M 78.921875 5.480469 C 79.90625 5.746094 80.46875 6.507812 80.46875 7.550781 C 80.46875 8.367188 80.066406 8.980469 79.285156 9.355469 C 77.523438 10.210938 75.667969 8.367188 76.515625 6.601562 C 76.78125 6.027344 77.105469 5.746094 77.738281 5.519531 C 78.371094 5.304688 78.277344 5.304688 78.921875 5.480469 Z M 78.921875 5.480469 " fill-opacity="1" fill-rule="nonzero"/><path fill="#0056a4" d="M 77.507812 7.46875 C 77.507812 8.566406 77.550781 8.808594 77.710938 8.808594 C 77.859375 8.808594 77.914062 8.648438 77.914062 8.207031 C 77.914062 7.671875 77.941406 7.605469 78.222656 7.605469 C 78.453125 7.605469 78.597656 7.75 78.828125 8.207031 C 78.988281 8.539062 79.207031 8.808594 79.328125 8.808594 C 79.488281 8.808594 79.472656 8.699219 79.230469 8.207031 L 78.9375 7.605469 L 79.230469 7.390625 C 79.421875 7.269531 79.527344 7.042969 79.527344 6.816406 C 79.527344 6.347656 79.097656 6.132812 78.183594 6.132812 L 77.507812 6.132812 Z M 79.097656 6.789062 C 79.152344 7.175781 78.9375 7.335938 78.355469 7.335938 C 77.941406 7.335938 77.914062 7.308594 77.914062 6.855469 L 77.914062 6.386719 L 78.492188 6.429688 C 78.976562 6.46875 79.070312 6.523438 79.097656 6.789062 Z M 79.097656 6.789062 " fill-opacity="1" fill-rule="nonzero"/><path fill="#0056a4" d="M 2.785156 8.902344 C 2.730469 8.941406 2.691406 13.363281 2.691406 18.726562 L 2.691406 28.457031 L 72.800781 28.457031 L 72.800781 42.074219 L 70.996094 42.117188 L 69.195312 42.15625 L 71.375 46.058594 C 72.558594 48.210938 73.566406 49.976562 73.621094 49.976562 C 73.660156 49.976562 74.671875 48.210938 75.855469 46.058594 L 78.019531 42.15625 L 76.285156 42.117188 L 74.550781 42.074219 L 74.550781 28.457031 L 81.316406 28.480469 L 88.074219 28.523438 L 88.140625 30.285156 L 88.207031 32.039062 L 92.136719 29.886719 C 94.304688 28.695312 96.027344 27.679688 95.972656 27.625 C 95.851562 27.507812 88.300781 23.375 88.207031 23.375 C 88.167969 23.375 88.140625 24.152344 88.140625 25.113281 L 88.140625 26.851562 L 74.550781 26.851562 L 74.550781 18.445312 C 74.550781 13.832031 74.507812 9.769531 74.46875 9.421875 L 74.375 8.808594 L 38.621094 8.808594 C 18.960938 8.808594 2.824219 8.847656 2.785156 8.902344 Z M 72.800781 18.699219 L 72.800781 26.851562 L 4.441406 26.851562 L 4.441406 10.542969 L 72.800781 10.542969 Z M 72.800781 18.699219 " fill-opacity="1" fill-rule="nonzero"/><path fill="#0056a4" d="M 23.804688 12.738281 C 23.777344 12.777344 23.011719 12.898438 22.09375 13.03125 C 20.925781 13.191406 20.453125 13.3125 20.453125 13.445312 C 20.453125 13.539062 20.574219 13.617188 20.734375 13.617188 C 20.882812 13.617188 21.125 13.6875 21.273438 13.765625 C 21.636719 13.953125 21.582031 14.234375 20.589844 17.761719 C 18.988281 23.363281 18.917969 23.777344 19.351562 24.324219 C 19.835938 24.914062 21.179688 24.644531 21.945312 23.816406 C 22.742188 22.960938 23.0625 22.441406 22.890625 22.265625 C 22.753906 22.148438 22.6875 22.160156 22.578125 22.359375 C 22.5 22.507812 22.242188 22.828125 22 23.082031 C 21.515625 23.605469 21.125 23.605469 21.125 23.070312 C 21.125 22.894531 21.691406 20.703125 22.390625 18.21875 C 23.9375 12.695312 23.9375 12.683594 23.898438 12.683594 C 23.871094 12.683594 23.832031 12.710938 23.804688 12.738281 Z M 23.804688 12.738281 " fill-opacity="1" fill-rule="nonzero"/><path fill="#0056a4" d="M 13.859375 13.085938 C 13.523438 13.152344 12.808594 13.433594 12.257812 13.699219 C 9.875 14.863281 8.300781 17.507812 8.289062 20.367188 C 8.273438 21.386719 8.328125 21.679688 8.625 22.308594 C 9.242188 23.628906 10.335938 24.417969 11.976562 24.714844 C 13.65625 25.019531 15.351562 24.460938 16.660156 23.203125 C 17.386719 22.496094 17.492188 22.253906 17.15625 22.121094 C 17.035156 22.078125 16.726562 22.28125 16.347656 22.65625 C 15.488281 23.511719 14.558594 23.910156 13.457031 23.898438 C 12.003906 23.898438 11.195312 23.230469 10.886719 21.800781 C 10.386719 19.421875 12.003906 15.316406 13.925781 14.046875 C 15.570312 12.964844 17.371094 13.578125 17.75 15.355469 C 17.828125 15.730469 17.898438 16.210938 17.898438 16.425781 C 17.898438 16.90625 18.261719 16.972656 18.367188 16.519531 C 18.648438 15.316406 19.109375 13.203125 19.109375 13.097656 C 19.109375 12.871094 18.867188 12.925781 18.449219 13.230469 C 18.070312 13.511719 18.042969 13.511719 17.277344 13.285156 C 16.320312 13.003906 14.695312 12.910156 13.859375 13.085938 Z M 13.859375 13.085938 " fill-opacity="1" fill-rule="nonzero"/><path fill="#0056a4" d="M 60.6875 13.125 C 60.015625 13.457031 59.867188 14.394531 60.40625 14.875 C 60.539062 14.996094 60.824219 15.128906 61.066406 15.167969 C 61.414062 15.234375 61.550781 15.183594 61.898438 14.847656 C 62.425781 14.328125 62.425781 13.859375 61.914062 13.339844 C 61.484375 12.910156 61.199219 12.871094 60.6875 13.125 Z M 60.6875 13.125 " fill-opacity="1" fill-rule="nonzero"/><path fill="#0056a4" d="M 27.949219 16.839844 C 26.089844 17.28125 24.316406 19.328125 23.964844 21.453125 C 23.722656 23.003906 24.234375 24.058594 25.5 24.539062 C 26.792969 25.035156 28.257812 24.433594 29.265625 22.976562 C 29.589844 22.519531 29.617188 22.402344 29.457031 22.292969 C 29.171875 22.121094 29.160156 22.132812 28.796875 22.667969 C 28.367188 23.296875 27.773438 23.644531 27.15625 23.644531 C 26.332031 23.644531 25.902344 22.921875 26.066406 21.824219 C 26.117188 21.453125 26.1875 21.410156 26.84375 21.277344 C 28.40625 20.945312 29.777344 20.046875 30.277344 19.03125 C 30.773438 18.003906 30.398438 17.132812 29.320312 16.828125 C 28.796875 16.679688 28.648438 16.679688 27.949219 16.839844 Z M 28.851562 17.441406 C 29.105469 17.683594 29.09375 17.65625 28.917969 18.429688 C 28.851562 18.765625 28.636719 19.257812 28.445312 19.527344 C 28.125 20.035156 26.914062 20.835938 26.480469 20.835938 C 26.265625 20.835938 26.265625 20.785156 26.46875 20.128906 C 26.777344 19.085938 27.382812 17.976562 27.855469 17.574219 C 28.339844 17.175781 28.554688 17.148438 28.851562 17.441406 Z M 28.851562 17.441406 " fill-opacity="1" fill-rule="nonzero"/><path fill="#0056a4" d="M 34.960938 16.828125 C 33.371094 17.308594 31.527344 19.675781 31.097656 21.757812 C 30.800781 23.1875 31.367188 24.472656 32.390625 24.660156 C 33.398438 24.847656 34.273438 24.378906 35.148438 23.175781 L 35.539062 22.640625 L 35.445312 23.335938 C 35.363281 23.964844 35.390625 24.058594 35.699219 24.367188 C 36.101562 24.765625 36.683594 24.820312 37.261719 24.511719 C 37.636719 24.324219 39.023438 22.882812 39.023438 22.695312 C 39.023438 22.386719 38.714844 22.519531 38.175781 23.054688 C 37.003906 24.21875 37.003906 23.589844 38.214844 19.582031 C 38.660156 18.109375 38.996094 16.878906 38.96875 16.867188 C 38.941406 16.839844 38.527344 16.855469 38.042969 16.90625 C 37.207031 16.988281 37.152344 17.015625 37.074219 17.375 C 36.976562 17.800781 36.734375 17.894531 36.734375 17.523438 C 36.734375 16.972656 35.738281 16.574219 34.960938 16.828125 Z M 36.222656 17.589844 C 36.910156 18.203125 35.96875 21.652344 34.746094 23.003906 C 34.207031 23.589844 33.492188 23.710938 33.238281 23.257812 C 32.671875 22.1875 34.085938 18.363281 35.308594 17.617188 C 35.820312 17.308594 35.914062 17.308594 36.222656 17.589844 Z M 36.222656 17.589844 " fill-opacity="1" fill-rule="nonzero"/><path fill="#0056a4" d="M 46.0625 16.800781 C 45.414062 17 44.539062 17.789062 43.8125 18.820312 C 43.382812 19.421875 43.007812 19.886719 42.980469 19.859375 C 42.953125 19.835938 43.140625 19.164062 43.410156 18.378906 C 43.679688 17.589844 43.867188 16.921875 43.839844 16.878906 C 43.800781 16.855469 43.140625 16.921875 42.375 17.027344 C 41.605469 17.132812 40.894531 17.226562 40.8125 17.226562 C 40.71875 17.226562 40.636719 17.320312 40.636719 17.429688 C 40.636719 17.546875 40.757812 17.628906 40.976562 17.628906 C 41.621094 17.628906 41.605469 17.921875 40.691406 21.171875 C 40.222656 22.855469 39.84375 24.285156 39.832031 24.339844 C 39.832031 24.40625 40.273438 24.445312 40.8125 24.445312 L 41.78125 24.445312 L 42.226562 23.003906 C 42.480469 22.214844 42.925781 21.0625 43.234375 20.4375 C 44.109375 18.644531 45.550781 17.363281 45.847656 18.109375 C 45.886719 18.230469 45.617188 19.273438 45.242188 20.421875 C 44.203125 23.605469 44.191406 24.296875 45.144531 24.566406 C 46.0625 24.820312 46.976562 24.324219 47.785156 23.148438 C 48.105469 22.695312 48.160156 22.507812 48.039062 22.402344 C 47.933594 22.28125 47.851562 22.292969 47.757812 22.46875 C 47.273438 23.324219 46.425781 23.84375 46.425781 23.28125 C 46.425781 23.164062 46.734375 22.132812 47.109375 20.984375 C 47.972656 18.390625 48.066406 17.683594 47.621094 17.1875 C 47.285156 16.800781 46.601562 16.625 46.0625 16.800781 Z M 46.0625 16.800781 " fill-opacity="1" fill-rule="nonzero"/><path fill="#0056a4" d="M 52.871094 16.878906 C 51.511719 17.363281 49.910156 19.179688 49.316406 20.902344 C 48.632812 22.960938 49.15625 24.511719 50.625 24.671875 C 51.566406 24.78125 52.453125 24.21875 53.316406 22.976562 C 53.53125 22.640625 53.542969 22.65625 53.460938 23.335938 C 53.394531 23.949219 53.421875 24.058594 53.730469 24.367188 C 54.429688 25.058594 55.535156 24.644531 56.570312 23.296875 C 57.257812 22.414062 56.988281 22.226562 56.207031 23.042969 C 55.023438 24.257812 55.023438 23.457031 56.234375 19.5 C 56.664062 18.070312 57.015625 16.878906 56.988281 16.855469 C 56.976562 16.828125 56.558594 16.855469 56.074219 16.90625 C 55.238281 16.988281 55.183594 17.015625 55.105469 17.375 C 54.996094 17.855469 54.820312 17.871094 54.714844 17.414062 C 54.660156 17.199219 54.457031 17.015625 54.164062 16.878906 C 53.609375 16.652344 53.503906 16.652344 52.871094 16.878906 Z M 54.257812 17.589844 C 54.59375 17.894531 54.566406 18.699219 54.164062 20.089844 C 53.542969 22.226562 52.683594 23.511719 51.875 23.511719 C 51.632812 23.511719 51.351562 23.417969 51.253906 23.28125 C 50.527344 22.425781 52.238281 17.988281 53.476562 17.496094 C 53.894531 17.320312 53.972656 17.335938 54.257812 17.589844 Z M 54.257812 17.589844 " fill-opacity="1" fill-rule="nonzero"/><path fill="#0056a4" d="M 67.472656 17.066406 C 67.148438 17.308594 66.675781 17.894531 66.246094 18.632812 C 65.855469 19.285156 65.53125 19.742188 65.53125 19.660156 C 65.53125 19.582031 65.722656 18.925781 65.949219 18.21875 C 66.179688 17.507812 66.339844 16.90625 66.3125 16.878906 C 66.285156 16.855469 65.601562 16.921875 64.78125 17.027344 C 63.972656 17.132812 63.273438 17.226562 63.21875 17.226562 C 63.152344 17.226562 63.109375 17.320312 63.109375 17.429688 C 63.109375 17.546875 63.230469 17.628906 63.449219 17.628906 C 64.242188 17.628906 64.121094 18.308594 62.355469 24.203125 C 62.289062 24.417969 62.398438 24.445312 63.300781 24.445312 L 64.296875 24.445312 L 64.914062 22.535156 C 65.507812 20.691406 66.085938 19.488281 66.703125 18.777344 C 67.066406 18.363281 67.296875 18.335938 67.617188 18.699219 C 67.859375 18.964844 68.425781 19.046875 68.707031 18.859375 C 69.246094 18.511719 69.316406 17.496094 68.828125 17.027344 C 68.414062 16.601562 68.117188 16.613281 67.472656 17.066406 Z M 67.472656 17.066406 " fill-opacity="1" fill-rule="nonzero"/><path fill="#0056a4" d="M 60.152344 16.972656 C 59.746094 17.039062 59.15625 17.121094 58.84375 17.160156 C 58.226562 17.253906 58.011719 17.628906 58.574219 17.628906 C 58.953125 17.628906 59.207031 17.855469 59.207031 18.191406 C 59.207031 18.335938 58.925781 19.472656 58.589844 20.742188 C 57.863281 23.402344 57.808594 23.925781 58.226562 24.324219 C 58.65625 24.753906 59.597656 24.714844 60.285156 24.246094 C 60.945312 23.789062 61.980469 22.359375 61.710938 22.265625 C 61.605469 22.226562 61.347656 22.425781 61.078125 22.789062 C 60.621094 23.390625 60.21875 23.628906 59.988281 23.402344 C 59.855469 23.269531 60.191406 21.785156 61.078125 18.65625 L 61.589844 16.828125 L 61.242188 16.839844 C 61.050781 16.855469 60.554688 16.90625 60.152344 16.972656 Z M 60.152344 16.972656 " fill-opacity="1" fill-rule="nonzero"/></svg>