<?xml version="1.0" standalone="no"?>
<!DOCTYPE svg PUBLIC "-//W3C//DTD SVG 20010904//EN"
 "http://www.w3.org/TR/2001/REC-SVG-20010904/DTD/svg10.dtd">
<svg version="1.0" xmlns="http://www.w3.org/2000/svg"
 width="748.000000pt" height="371.000000pt" viewBox="0 0 748.000000 371.000000"
 preserveAspectRatio="xMidYMid meet">

<g transform="translate(0.000000,371.000000) scale(0.100000,-0.100000)"
fill="#0056A4" stroke="none">
<path d="M5694 3511 c-18 -10 -45 -36 -60 -57 -24 -31 -29 -47 -29 -94 0 -103
72 -173 177 -174 88 0 168 81 168 169 -1 55 -31 117 -71 146 -46 33 -141 38
-185 10z m121 -2 c73 -20 115 -77 115 -155 0 -61 -30 -107 -88 -135 -131 -64
-269 74 -206 206 20 43 44 64 91 81 47 16 40 16 88 3z"/>
<path d="M5710 3360 c0 -82 3 -100 15 -100 11 0 15 12 15 45 0 40 2 45 23 45
17 0 28 -11 45 -45 12 -25 28 -45 37 -45 12 0 11 8 -7 45 l-22 45 22 16 c14 9
22 26 22 43 0 35 -32 51 -100 51 l-50 0 0 -100z m118 51 c4 -29 -12 -41 -55
-41 -31 0 -33 2 -33 36 l0 35 43 -3 c36 -3 43 -7 45 -27z"/>
<path d="M157 3253 c-4 -3 -7 -334 -7 -735 l0 -728 2605 0 2605 0 0 -510 0
-509 -134 -3 -134 -3 162 -292 c88 -161 163 -293 167 -293 3 0 78 132 166 293
l161 292 -129 3 -129 3 0 509 0 510 503 -2 502 -3 5 -132 5 -131 292 161 c161
89 289 165 285 169 -9 9 -570 318 -577 318 -3 0 -5 -58 -5 -130 l0 -130 -505
0 -505 0 0 629 c0 345 -3 649 -6 675 l-7 46 -2657 0 c-1461 0 -2660 -3 -2663
-7z m5203 -733 l0 -610 -2540 0 -2540 0 0 610 0 610 2540 0 2540 0 0 -610z"/>
<path d="M1719 2966 c-2 -3 -59 -12 -127 -22 -87 -12 -122 -21 -122 -31 0 -7
9 -13 21 -13 11 0 29 -5 40 -11 27 -14 23 -35 -51 -299 -119 -419 -124 -450
-92 -491 36 -44 136 -24 193 38 59 64 83 103 70 116 -10 9 -15 8 -23 -7 -6
-11 -25 -35 -43 -54 -36 -39 -65 -39 -65 1 0 13 42 177 94 363 115 413 115
414 112 414 -2 0 -5 -2 -7 -4z"/>
<path d="M980 2940 c-25 -5 -78 -26 -119 -46 -177 -87 -294 -285 -295 -499 -1
-76 3 -98 25 -145 46 -99 127 -158 249 -180 125 -23 251 19 348 113 54 53 62
71 37 81 -9 3 -32 -12 -60 -40 -64 -64 -133 -94 -215 -93 -108 0 -168 50 -191
157 -37 178 83 485 226 580 122 81 256 35 284 -98 6 -28 11 -64 11 -80 0 -36
27 -41 35 -7 21 90 55 248 55 256 0 17 -18 13 -49 -10 -28 -21 -30 -21 -87 -4
-71 21 -192 28 -254 15z"/>
<path d="M4460 2937 c-50 -25 -61 -95 -21 -131 10 -9 31 -19 49 -22 26 -5 36
-1 62 24 39 39 39 74 1 113 -32 32 -53 35 -91 16z"/>
<path d="M2027 2659 c-138 -33 -270 -186 -296 -345 -18 -116 20 -195 114 -231
96 -37 205 8 280 117 24 34 26 43 14 51 -21 13 -22 12 -49 -28 -32 -47 -76
-73 -122 -73 -61 0 -93 54 -81 136 4 28 9 31 58 41 116 25 218 92 255 168 37
77 9 142 -71 165 -39 11 -50 11 -102 -1z m67 -45 c19 -18 18 -16 5 -74 -5 -25
-21 -62 -35 -82 -24 -38 -114 -98 -146 -98 -16 0 -16 4 -1 53 23 78 68 161
103 191 36 30 52 32 74 10z"/>
<path d="M2548 2660 c-118 -36 -255 -213 -287 -369 -22 -107 20 -203 96 -217
75 -14 140 21 205 111 l29 40 -7 -52 c-6 -47 -4 -54 19 -77 30 -30 73 -34 116
-11 28 14 131 122 131 136 0 23 -23 13 -63 -27 -87 -87 -87 -40 3 260 33 110
58 202 56 203 -2 2 -33 1 -69 -3 -62 -6 -66 -8 -72 -35 -7 -32 -25 -39 -25
-11 0 41 -74 71 -132 52z m94 -57 c51 -46 -19 -304 -110 -405 -40 -44 -93 -53
-112 -19 -42 80 63 366 154 422 38 23 45 23 68 2z"/>
<path d="M3373 2662 c-48 -15 -113 -74 -167 -151 -32 -45 -60 -80 -62 -78 -2
2 12 52 32 111 20 59 34 109 32 112 -3 2 -52 -3 -109 -11 -57 -8 -110 -15
-116 -15 -7 0 -13 -7 -13 -15 0 -9 9 -15 25 -15 48 0 47 -22 -21 -265 -35
-126 -63 -233 -64 -237 0 -5 33 -8 73 -8 l72 0 33 108 c19 59 52 145 75 192
65 134 172 230 194 174 3 -9 -17 -87 -45 -173 -77 -238 -78 -290 -7 -310 68
-19 136 18 196 106 24 34 28 48 19 56 -8 9 -14 8 -21 -5 -36 -64 -99 -103 -99
-61 0 9 23 86 51 172 64 194 71 247 38 284 -25 29 -76 42 -116 29z"/>
<path d="M3879 2656 c-101 -36 -220 -172 -264 -301 -51 -154 -12 -270 97 -282
70 -8 136 34 200 127 16 25 17 24 11 -27 -5 -46 -3 -54 20 -77 52 -52 134 -21
211 80 51 66 31 80 -27 19 -88 -91 -88 -31 2 265 32 107 58 196 56 198 -1 2
-32 0 -68 -4 -62 -6 -66 -8 -72 -35 -8 -36 -21 -37 -29 -3 -4 16 -19 30 -41
40 -41 17 -49 17 -96 0z m103 -53 c25 -23 23 -83 -7 -187 -46 -160 -110 -256
-170 -256 -18 0 -39 7 -46 17 -54 64 73 396 165 433 31 13 37 12 58 -7z"/>
<path d="M4964 2642 c-24 -18 -59 -62 -91 -117 -29 -49 -53 -83 -53 -77 0 6
14 55 31 108 17 53 29 98 27 100 -2 2 -53 -3 -114 -11 -60 -8 -112 -15 -116
-15 -5 0 -8 -7 -8 -15 0 -9 9 -15 25 -15 59 0 50 -51 -81 -492 -5 -16 3 -18
70 -18 l74 0 46 143 c44 138 87 228 133 281 27 31 44 33 68 6 18 -20 60 -26
81 -12 40 26 45 102 9 137 -31 32 -53 31 -101 -3z"/>
<path d="M4420 2649 c-30 -5 -74 -11 -97 -14 -46 -7 -62 -35 -20 -35 28 0 47
-17 47 -42 0 -11 -21 -96 -46 -191 -54 -199 -58 -238 -27 -268 32 -32 102 -29
153 6 49 34 126 141 106 148 -8 3 -27 -12 -47 -39 -34 -45 -64 -63 -81 -46
-10 10 15 121 81 355 l38 137 -26 -1 c-14 -1 -51 -5 -81 -10z"/>
</g>
</svg>
